<?xml version="1.0" encoding="UTF-8"?>
<svg xmlns="http://www.w3.org/2000/svg" xmlns:xlink="http://www.w3.org/1999/xlink" width="24px" height="24px" viewBox="0 0 24 32" version="1.1">
<g id="surface1">
<path style=" stroke:none;fill-rule:nonzero;fill:rgb(0%,0%,0%);fill-opacity:1;" d="M 21.484375 6.667969 L 21.484375 4.964844 L 22.71875 4 L 9.351562 4 L 1.28125 11.015625 L 6.632812 11.015625 C 6.625 11.148438 6.621094 11.269531 6.621094 11.40625 C 6.621094 12.710938 7.070312 13.785156 7.972656 14.648438 C 8.878906 15.511719 9.988281 15.9375 11.308594 15.9375 C 11.613281 15.9375 11.917969 15.914062 12.210938 15.875 C 12.027344 16.28125 11.9375 16.65625 11.9375 17.007812 C 11.9375 17.625 12.21875 18.285156 12.777344 18.984375 C 10.324219 19.152344 8.523438 19.59375 7.375 20.308594 C 6.71875 20.714844 6.1875 21.226562 5.789062 21.839844 C 5.390625 22.460938 5.191406 23.125 5.191406 23.839844 C 5.191406 24.441406 5.320312 24.984375 5.578125 25.46875 C 5.839844 25.949219 6.175781 26.347656 6.597656 26.65625 C 7.019531 26.964844 7.503906 27.222656 8.050781 27.433594 C 8.59375 27.644531 9.136719 27.792969 9.679688 27.875 C 10.21875 27.957031 10.753906 28 11.285156 28 C 12.125 28 12.96875 27.890625 13.820312 27.675781 C 14.667969 27.457031 15.460938 27.136719 16.203125 26.707031 C 16.945312 26.28125 17.550781 25.703125 18.011719 24.976562 C 18.472656 24.246094 18.707031 23.425781 18.707031 22.515625 C 18.707031 21.828125 18.566406 21.203125 18.285156 20.632812 C 18.003906 20.066406 17.664062 19.597656 17.253906 19.234375 C 16.847656 18.871094 16.441406 18.539062 16.035156 18.238281 C 15.628906 17.933594 15.285156 17.628906 15.007812 17.3125 C 14.726562 16.996094 14.585938 16.683594 14.585938 16.375 C 14.585938 16.070312 14.695312 15.773438 14.910156 15.484375 C 15.128906 15.195312 15.390625 14.917969 15.699219 14.652344 C 16.007812 14.386719 16.316406 14.09375 16.625 13.769531 C 16.933594 13.449219 17.195312 13.03125 17.414062 12.519531 C 17.628906 12.007812 17.738281 11.429688 17.738281 10.785156 C 17.738281 9.945312 17.578125 9.253906 17.265625 8.703125 C 17.230469 8.636719 17.191406 8.589844 17.148438 8.511719 L 20.707031 5.597656 L 20.707031 6.667969 C 20.242188 6.722656 20.292969 7 20.292969 7.332031 L 20.292969 15.371094 C 20.292969 15.746094 20.597656 16.050781 20.96875 16.050781 L 21.21875 16.050781 C 21.589844 16.050781 21.894531 15.746094 21.894531 15.371094 L 21.894531 7.332031 C 21.894531 7 21.945312 6.726562 21.484375 6.667969 Z M 14.773438 20.570312 C 14.847656 20.617188 15.007812 20.746094 15.257812 20.949219 C 15.511719 21.152344 15.683594 21.304688 15.773438 21.414062 C 15.863281 21.515625 15.996094 21.671875 16.171875 21.882812 C 16.347656 22.09375 16.46875 22.277344 16.53125 22.429688 C 16.59375 22.585938 16.65625 22.769531 16.71875 22.988281 C 16.78125 23.203125 16.8125 23.425781 16.8125 23.648438 C 16.8125 24.714844 16.402344 25.503906 15.585938 26.015625 C 14.765625 26.527344 13.785156 26.78125 12.652344 26.78125 C 12.078125 26.78125 11.511719 26.714844 10.960938 26.582031 C 10.40625 26.449219 9.878906 26.25 9.371094 25.980469 C 8.867188 25.714844 8.460938 25.34375 8.152344 24.871094 C 7.84375 24.394531 7.691406 23.84375 7.691406 23.230469 C 7.691406 22.585938 7.867188 22.023438 8.21875 21.546875 C 8.566406 21.070312 9.027344 20.710938 9.59375 20.464844 C 10.160156 20.21875 10.734375 20.042969 11.316406 19.941406 C 11.898438 19.835938 12.492188 19.78125 13.09375 19.78125 C 13.375 19.78125 13.589844 19.796875 13.746094 19.824219 C 13.773438 19.839844 13.933594 19.953125 14.226562 20.171875 C 14.523438 20.390625 14.703125 20.523438 14.773438 20.570312 Z M 14.566406 14.285156 C 14.101562 14.839844 13.457031 15.117188 12.628906 15.117188 C 11.890625 15.117188 11.238281 14.816406 10.675781 14.222656 C 10.113281 13.625 9.710938 12.949219 9.46875 12.195312 C 9.222656 11.4375 9.097656 10.695312 9.097656 9.964844 C 9.097656 9.109375 9.324219 8.382812 9.773438 7.78125 C 10.222656 7.175781 10.867188 6.875 11.707031 6.875 C 12.449219 6.875 13.105469 7.191406 13.671875 7.824219 C 14.238281 8.453125 14.644531 9.160156 14.890625 9.945312 C 15.136719 10.730469 15.257812 11.476562 15.257812 12.195312 C 15.257812 13.035156 15.027344 13.730469 14.566406 14.285156 Z M 14.566406 14.285156 "/>
</g>
</svg>
