<?xml version="1.0" encoding="UTF-8"?>
<svg xmlns="http://www.w3.org/2000/svg" xmlns:xlink="http://www.w3.org/1999/xlink" width="24px" height="24px" viewBox="0 0 24 24" version="1.1">
<g id="surface1">
<path style=" stroke:none;fill-rule:nonzero;fill:rgb(0%,0%,0%);fill-opacity:1;" d="M 12 0.375 C 10.390625 0.375 9.082031 1.679688 9.082031 3.292969 C 9.082031 4.242188 9.546875 5.082031 10.25 5.613281 C 10.261719 4.652344 11.039062 3.878906 12 3.878906 C 12.960938 3.878906 13.738281 4.652344 13.75 5.613281 C 14.453125 5.082031 14.917969 4.242188 14.917969 3.292969 C 14.917969 1.679688 13.609375 0.375 12 0.375 Z M 13.75 18.386719 C 13.738281 19.347656 12.960938 20.121094 12 20.121094 C 11.039062 20.121094 10.261719 19.347656 10.25 18.386719 C 9.546875 18.917969 9.082031 19.757812 9.082031 20.707031 C 9.082031 22.320312 10.390625 23.625 12 23.625 C 13.609375 23.625 14.917969 22.320312 14.917969 20.707031 C 14.917969 19.757812 14.453125 18.917969 13.75 18.386719 Z M 20.707031 9.082031 C 19.757812 9.082031 18.917969 9.546875 18.386719 10.25 C 19.347656 10.261719 20.121094 11.039062 20.121094 12 C 20.121094 12.960938 19.347656 13.738281 18.386719 13.75 C 18.921875 14.453125 19.757812 14.917969 20.707031 14.917969 C 22.320312 14.917969 23.625 13.609375 23.625 12 C 23.625 10.390625 22.320312 9.082031 20.707031 9.082031 Z M 3.878906 12 C 3.878906 11.039062 4.652344 10.261719 5.613281 10.25 C 5.082031 9.546875 4.242188 9.082031 3.292969 9.082031 C 1.679688 9.082031 0.375 10.390625 0.375 12 C 0.375 13.609375 1.679688 14.917969 3.292969 14.917969 C 4.242188 14.917969 5.082031 14.453125 5.613281 13.75 C 4.652344 13.738281 3.878906 12.960938 3.878906 12 Z M 20.21875 3.78125 C 19.082031 2.640625 17.234375 2.640625 16.097656 3.78125 C 15.421875 4.453125 15.160156 5.371094 15.28125 6.246094 C 15.277344 6.25 15.273438 6.253906 15.269531 6.257812 C 14.585938 6.941406 14.585938 8.046875 15.269531 8.730469 C 15.953125 9.414062 17.058594 9.414062 17.742188 8.730469 C 17.746094 8.726562 17.75 8.722656 17.753906 8.71875 C 18.628906 8.839844 19.546875 8.578125 20.21875 7.902344 C 21.359375 6.765625 21.359375 4.917969 20.21875 3.78125 Z M 8.730469 17.742188 C 9.414062 17.058594 9.414062 15.953125 8.730469 15.269531 C 8.046875 14.585938 6.941406 14.585938 6.257812 15.269531 C 6.253906 15.273438 6.25 15.277344 6.246094 15.28125 C 5.371094 15.15625 4.453125 15.421875 3.78125 16.097656 C 2.640625 17.234375 2.640625 19.082031 3.78125 20.21875 C 4.917969 21.359375 6.765625 21.359375 7.902344 20.21875 C 8.578125 19.546875 8.839844 18.628906 8.71875 17.753906 C 8.722656 17.75 8.726562 17.746094 8.730469 17.742188 Z M 8.730469 6.257812 C 8.726562 6.253906 8.722656 6.25 8.71875 6.246094 C 8.839844 5.371094 8.578125 4.453125 7.902344 3.78125 C 6.765625 2.640625 4.917969 2.640625 3.78125 3.78125 C 2.640625 4.917969 2.640625 6.765625 3.78125 7.902344 C 4.453125 8.578125 5.371094 8.84375 6.246094 8.71875 C 6.25 8.722656 6.253906 8.726562 6.257812 8.730469 C 6.941406 9.414062 8.046875 9.414062 8.730469 8.730469 C 9.414062 8.046875 9.414062 6.941406 8.730469 6.257812 Z M 20.21875 16.097656 C 19.546875 15.421875 18.628906 15.15625 17.753906 15.28125 C 17.75 15.277344 17.746094 15.273438 17.742188 15.269531 C 17.058594 14.585938 15.953125 14.585938 15.269531 15.269531 C 14.585938 15.953125 14.585938 17.058594 15.269531 17.742188 C 15.273438 17.746094 15.277344 17.75 15.28125 17.753906 C 15.160156 18.628906 15.421875 19.546875 16.097656 20.21875 C 17.234375 21.359375 19.082031 21.359375 20.21875 20.21875 C 21.359375 19.082031 21.359375 17.234375 20.21875 16.097656 Z M 20.21875 16.097656 "/>
</g>
</svg>
